<svg width="123" height="117" viewBox="0 0 123 117" fill="none" xmlns="http://www.w3.org/2000/svg">
<rect x="10.6367" y="26.5908" width="10.6364" height="79.7727" fill="black"/>
<rect y="53.1826" width="10.6364" height="21.2727" fill="black"/>
<rect x="55.8408" width="10.6364" height="15.9545" fill="black"/>
<rect x="111.682" y="53.1826" width="10.6364" height="21.2727" fill="black"/>
<rect x="37.2275" y="42.5459" width="10.6364" height="21.2727" fill="black"/>
<rect x="74.4541" y="42.5459" width="10.6364" height="21.2727" fill="black"/>
<rect x="53.1826" y="47.8643" width="10.6364" height="21.2727" transform="rotate(90 53.1826 47.8643)" fill="black"/>
<rect x="74.4541" y="85.6758" width="10.6364" height="26.5909" transform="rotate(90 74.4541 85.6758)" fill="black"/>
<rect x="47.8643" y="79.7725" width="10.6364" height="10.6364" transform="rotate(90 47.8643 79.7725)" fill="black"/>
<rect x="85.0908" y="79.7725" width="10.6364" height="10.6364" transform="rotate(90 85.0908 79.7725)" fill="black"/>
<rect x="90.4092" y="47.8643" width="10.6364" height="21.2727" transform="rotate(90 90.4092 47.8643)" fill="black"/>
<rect x="101.045" y="26.5908" width="10.6364" height="79.7727" fill="black"/>
<rect x="21.2725" y="117" width="10.6364" height="79.7727" transform="rotate(-90 21.2725 117)" fill="black"/>
<rect x="21.2725" y="26.5908" width="10.6364" height="79.7727" transform="rotate(-90 21.2725 26.5908)" fill="black"/>
</svg>
